<svg version="1.1" xmlns="http://www.w3.org/2000/svg" viewBox="-2 -2.4 22 22" width="120" height="120"><g><path paint-order="stroke" fill="#fff" stroke="#000" stroke-width="1" d="M9,17.09l-3.51.61v-.3c0-.65.11-1,.33-1.09L8.5,15a5.61,5.61,0,0,1-.28-1.32l-.53-.41-.1-.69H7.12l0-.21a7.19,7.19,0,0,1-.15-2.19L.24,9.05V8.84c0-1.1.51-1.15.61-1.15L7.8,7.18V2.88C7.8.64,8.89.3,8.93.28L9,.26l.07,0s1.13.36,1.13,2.6v4.3l7,.51c.09,0,.59.06.59,1.15v.21l-6.69,1.16a7.17,7.17,0,0,1-.15,2.19l0,.21h-.47l-.1.69-.53.41A5.61,5.61,0,0,1,9.5,15l2.74,1.28c.2.07.31.43.31,1.08v.3Z"/></g></svg>