<svg version="1.1" xmlns="http://www.w3.org/2000/svg" viewBox="0 0 64 64" width="120" height="120"><g><path paint-order="stroke" fill="#fff" stroke="#000" stroke-width="2.25" d="m 30.764,3.957 c -1.030,1.995 -1.438,5.650 -1.600,7.687 -0.248,3.120 -0.114,5.478 -0.156,7.568 -0.016,0.798 -0.737,1.483 -1.435,2.163 l -4.630,4.207 c 0.136,-0.609 0.313,-2.735 0.011,-3.413 l -2.147,-0.067 c -0.337,0.636 -0.227,2.516 -0.102,3.486 l 0.414,0.033 0.179,1.447 -5.794,5.342 c 0.077,-0.914 0.114,-2.161 -0.105,-2.633 l -2.172,-0.078 c -0.367,0.716 -0.185,2.323 -0.053,3.475 h 0.394 l 0.138,0.949 -7.991,6.563 C 5.411,40.937 5.586,41.437 5.564,41.830 l -0.694,2.353 0.005,0.991 0.715,-1.236 10.464,-6.218 c 0.012,0.663 0.110,1.051 0.231,1.010 0.135,-0.045 0.328,-0.852 0.361,-1.290 l 2.274,-1.389 c -0.003,0.493 0.054,1.174 0.196,1.088 0.126,-0.076 0.384,-0.807 0.362,-1.370 l 1.528,-0.943 2.988,-1.018 c 0.073,0.381 0.122,0.929 0.292,0.896 0.159,-0.031 0.257,-0.491 0.355,-1.065 l 1.704,-0.597 c 0.025,0.437 0.163,0.976 0.297,0.914 0.149,-0.070 0.339,-0.647 0.356,-1.118 l 1.935,-0.666 0.054,10.106 c 0.183,3.800 0.173,5.797 0.919,9.127 -0.072,0.573 -0.374,0.766 -0.640,1.020 l -6.724,6.317 -0.007,2.046 8.553,-2.312 c 0.019,0.586 0.061,1.045 0.432,1.368 l 0.146,1.817 0.146,-1.817 c 0.371,-0.323 0.413,-0.782 0.432,-1.368 l 8.553,2.312 -0.007,-2.046 -6.724,-6.317 c -0.266,-0.253 -0.569,-0.446 -0.640,-1.020 0.747,-3.331 0.736,-5.327 0.919,-9.127 l 0.054,-10.106 1.935,0.666 c 0.017,0.470 0.207,1.048 0.356,1.118 0.134,0.062 0.272,-0.477 0.297,-0.914 l 1.704,0.597 c 0.098,0.574 0.196,1.034 0.355,1.065 0.170,0.033 0.219,-0.515 0.292,-0.896 l 2.988,1.018 1.528,0.943 c -0.021,0.563 0.237,1.294 0.362,1.370 0.141,0.086 0.198,-0.595 0.196,-1.088 l 2.274,1.389 c 0.033,0.439 0.227,1.245 0.361,1.290 0.121,0.041 0.219,-0.347 0.231,-1.010 l 10.464,6.218 0.715,1.236 0.005,-0.991 -0.694,-2.353 c -0.021,-0.393 0.153,-0.893 -0.151,-1.143 l -7.991,-6.563 0.138,-0.949 h 0.394 c 0.132,-1.152 0.314,-2.760 -0.053,-3.475 l -2.172,0.078 c -0.218,0.472 -0.182,1.719 -0.105,2.633 l -5.794,-5.342 0.179,-1.447 0.414,-0.033 c 0.125,-0.970 0.236,-2.850 -0.102,-3.486 l -2.147,0.067 c -0.302,0.678 -0.125,2.804 0.011,3.413 l -4.630,-4.207 c -0.698,-0.680 -1.419,-1.365 -1.435,-2.163 -0.042,-2.090 0.092,-4.448 -0.156,-7.568 -0.162,-2.037 -0.600,-5.677 -1.600,-7.687 -0.592,-1.190 -1.211,-1.157 -1.809,0 z"/></g></svg>