<svg version="1.1" xmlns="http://www.w3.org/2000/svg" viewBox="75 -4 72 72" width="120" height="120"><g><path paint-order="stroke" fill="#fff" stroke="#000" stroke-width="3" d="M123.984 55.377l.768 2.092.09 3.559-.655 1.058-.27 1.78-.43-1.828-10.175-3.944-.655-.072-.36 1.876-2.009.024-.451-1.852h-.564l-10.154 4.233-.316 1.803-.428-1.78-.61-.769-.045-3.92.745-2.044.722 1.275L108.506 51l-.767-17.051-6.882.072-21.12 8.682v-2.309l.79-1.66 11.327-8.176-1.016-1.37.023-3.368.564-.529h1.399l.519.626.113 3.727 3.497-2.573-.587-.986-.09-3.223.339-.697h1.76l.45.577v3.006l3.43-2.405-.654-.77-.022-3.823.586-.457h1.287l.518.601v3.247l3.362-2.886v-8.032l.316-3.512.226-2.212.79-2.67.857-1.515.654-.841.677.048.542.457.654 1.25.587 1.058.541 1.804.316 1.515.271 1.732.113 2.91.225 7.767 3.51 2.97-.091-3.198.429-.59 1.635-.023.395.553.08 3.547-.587.83 3.452 2.429-.09-2.958.406-.746h1.602l.541.577.023 3.391-.61.938 3.633 2.477-.045-3.872.564-.577h1.264l.564.722.045 3.367-.88 1.274 11.192 7.6.79.841.248.842.18.721v1.66l-21.277-7.984-7.04.024-.37 17.152 9.381 5.611z"/></g></svg>