<svg version="1.1" xmlns="http://www.w3.org/2000/svg" viewBox="30.8 -0.5 26 26" width="120" height="120"><g><path paint-order="stroke" fill="#fff" stroke="#000" stroke-width="1.5" d="M46 21.4h-4.4s-.5-2.2-.1-2.4l.2.3h1v-2.5s-1.4-2.8-1-3.8l-3.7-.4 1.5 3.7-.4.2-2-4.2.2-.2s-.3 0-.4-.4c0 0-.6.1-1-.1l-3.8-.5v-.5l4.8.4s0-1.3 1-.5l2.5-3.3.4.3-2 2.9 3.2.4.6-1v-2s.1-1.2.6-1.7v-.3s.1-.5.3 0l.3-.2s1 .2 1.2 2.3v2l.6.9 3.2-.4-2-2.7.5-.3 2.5 3.3s1-.9 1 .5l4.7-.5v.5l-4.7.6s0 .4-.4.4l.1.2-1.9 4.3-.4-.2 1.6-3.9-4 .5s.4 1-.9 3.8v2.4h1s0-.3.2-.3c0 0 .3 0 0 2.4z"/></g></svg>