<svg version="1.1" xmlns="http://www.w3.org/2000/svg" viewBox="-2 -3 25 25" width="120" height="120"><g><path paint-order="stroke" fill="#fff" stroke="#000" stroke-width="1.5" d="M10.1,18.34H7l0-.21c-.08-.54,0-.87.11-1L7.19,17l.2,0,2.35-.33c-.16-.82-.42-2.9-.42-3.14s0-2.71,0-3.51H8c-.12,1.34-.41,1.36-.55,1.37h0c-.19,0-.46,0-.6-1.55L.27,9.52l0-.25c.06-.73.31-.9.45-.93l6-.48a3.65,3.65,0,0,1,.3-2,.45.45,0,0,1,.32-.16h0a.39.39,0,0,1,.3.12A3.67,3.67,0,0,1,8,7.77l1.26-.07c0-.71,0-2.92,0-4.48A3.84,3.84,0,0,1,10.1.4a.4.4,0,0,1,.28-.16h.23A.4.4,0,0,1,10.9.4a3.84,3.84,0,0,1,.87,2.81c0,1.55,0,3.77,0,4.48L13,7.77a3.67,3.67,0,0,1,.29-1.94.38.38,0,0,1,.28-.12.46.46,0,0,1,.34.16,3.66,3.66,0,0,1,.3,2l6,.48c.18,0,.43.21.49.94l0,.25-6.53.3c-.14,1.55-.42,1.55-.59,1.55s-.45,0-.57-1.37H11.74c0,.8,0,3.27,0,3.51s-.26,2.32-.42,3.14l2.38.34h.11l.13.13c.15.18.19.51.11,1l0,.21H10.9l-.4,1Z"/></g></svg>