<svg version="1.1" xmlns="http://www.w3.org/2000/svg" viewBox="-2 -2 23 23" width="120" height="120"><g><path paint-order="stroke" fill="#fff" stroke="#000" stroke-width="1.5" d="M 9.53,0.50 C 9.51,0.54 9.42,0.76 9.38,0.82 9.05,0.53 6.02,0.49 6.02,0.99 c 0.50,0 2.50,0.13 3.33,-0.08 C 8.52,1.63 8.53,3.51 8.23,6.47 L 1.33,7.00 C 0.50,7.07 0.50,7.57 0.50,8.44 L 5.97,9.39 C 6.71,9.58 8.12,10.04 8.12,10.04 c 0,0 0.29,4.81 0.82,6.26 l -2.91,0.67 c 0,0 -0.19,0.63 -0.19,1.20 l 3.54,0.23 0.08,0.11 0.08,-0.11 3.55,-0.20 c -0.00,-0.56 -0.18,-1.20 -0.18,-1.20 L 9.99,16.30 c 0.55,-1.44 0.88,-6.25 0.88,-6.25 0,0 1.41,-0.45 2.15,-0.63 l 5.48,-0.90 c 0.01,-0.87 0.01,-1.38 -0.81,-1.45 L 10.79,6.49 C 10.51,3.52 10.54,1.64 9.71,0.91 10.54,1.13 12.54,1.02 13.04,1.03 13.05,0.52 10.02,0.53 9.68,0.82 9.65,0.76 9.55,0.54 9.53,0.50 Z"/></g></svg>