<svg version="1.1" xmlns="http://www.w3.org/2000/svg" viewBox="-3 -4 25 22" width="120" height="120"><g><path paint-order="stroke" fill="#fff" stroke="#000" stroke-width="1.5" d="M9.5,15.75c-.21,0-.34-.17-.41-.51l-2.88.23v-.27c0-.78,0-1.11.28-1.13L9,13.1c-.31-1.86-.55-5-.59-5.55l-.08-.09H6.08L.25,6.54v-1A.43.43,0,0,1,.67,5l3.75-.27L5,4.45V3.53H4.73V2.7a.35.35,0,0,1,.34-.35h.07c.12-.52.26-.83.54-.83s.42.31.53.83h.07a.35.35,0,0,1,.34.35v.83H6.36v1l2-.08C8.42.81,9.09.25,9.49.25s1.09.55,1.12,4.21l2,.08v-1h-.25V2.7a.35.35,0,0,1,.34-.35h.07c.12-.52.26-.83.53-.83s.42.31.54.83h.07a.35.35,0,0,1,.34.35v.83H14v.92l.57.32L18.32,5a.42.42,0,0,1,.43.46v1L13,7.46H10.71l-.08.09c0,.56-.27,3.68-.59,5.55l2.46,1c.28,0,.28.35.28,1.13v.27l-2.88-.23C9.84,15.58,9.71,15.75,9.5,15.75Z"/></g></svg>