<svg version="1.1" xmlns="http://www.w3.org/2000/svg" viewBox="-0.3 -1 32 32" width="120" height="120"><g><path paint-order="stroke" fill="#fff" stroke="#000" stroke-width="1.5" d="M17.1 9.2s.5 1.3.6 2h.3v.3l1.8 1.6s.2.2.2.5v.6l-1.7-.5.5 1.9 5.4 5.5V20s0-.2.1-.1c0 0 0-.3.3-.3v-1.4s.2-1.3.3 0v2h.1V23h.1l.1.4h-.1v.1H25v.3h-.4v.4s-.5.2-.5-.5l-6 .4v1.3h-.5l-.1.8H16s0 .5-.2.4v1.3h-.3v-1.3l-.1-.4h-1.5l-.2-.9h-.5V24l-6-.4s.2.6-.4.5v-.4h-.3v-.3h-.2v-.1h-.1v-.4h.2v-4.7s.2-1.3.4 0v1.4s.3 0 .3.3v1.2l5.5-5.5.4-1.9-1.6.5v-.6s0-.3.2-.5l1.8-1.6v-.3h.2s.1-.8.6-2c0 0 .4-.9.6-2 0 0 .2-2.3.9-4.3 0 0 .7 2.2.9 4.2 0 0 .2 1.4.5 2.1z"/></g></svg>