<svg version="1.1" xmlns="http://www.w3.org/2000/svg" viewBox="48 -2 36 36" width="120" height="120"><g><path paint-order="stroke" fill="#fff" stroke="#000" stroke-width="1.5" d="M 65.811,0.918 C 65.338,1.311 64.907,3.105 64.761,5.285 c -0.042,0.650 -0.070,2.099 -0.056,3.209 l 0.021,2.031 -2.192,1.652 -2.192,1.652 -0.042,-0.508 c -0.077,-0.900 -0.132,-1.131 -0.257,-1.137 -0.223,-0.014 -0.745,0.020 -0.772,0.047 -0.056,0.054 -0.007,1.835 0.063,2.051 0.035,0.129 0.063,0.244 0.049,0.250 -0.007,0.007 -0.654,0.487 -1.441,1.076 -0.786,0.589 -1.461,1.097 -1.503,1.124 -0.056,0.041 -0.070,-0.176 -0.042,-0.772 0.014,-0.508 0,-0.900 -0.049,-1.015 -0.077,-0.183 -0.090,-0.190 -0.543,-0.169 l -0.473,0.020 -0.056,0.372 c -0.063,0.372 -0.021,1.841 0.063,2.173 0.035,0.162 -0.077,0.257 -1.552,1.367 -1.635,1.225 -2.171,1.726 -2.366,2.227 -0.139,0.366 -0.223,2.762 -0.097,2.762 0.049,0 0.077,-0.210 0.077,-0.609 V 22.480 l 0.278,-0.169 c 0.160,-0.095 0.355,-0.203 0.438,-0.230 0.084,-0.034 1.935,-0.907 4.120,-1.936 l 3.967,-1.868 1.649,-0.332 c 1.468,-0.298 1.705,-0.332 2.150,-0.284 l 0.508,0.047 -0.285,0.183 c -0.738,0.474 -1.274,1.516 -1.274,2.478 0,0.393 0.160,1.002 0.355,1.381 0.202,0.379 0.745,0.927 1.169,1.171 0.306,0.183 0.355,0.237 0.383,0.474 0.021,0.149 0.118,0.819 0.209,1.489 0.118,0.812 0.153,1.239 0.104,1.286 -0.035,0.034 -0.870,0.691 -1.858,1.456 -2.074,1.611 -2.074,1.611 -2.053,2.491 0.021,0.677 0.063,0.867 0.188,0.765 0.049,-0.041 0.884,-0.318 1.858,-0.616 0.974,-0.291 1.949,-0.596 2.164,-0.670 0.480,-0.156 0.445,-0.210 0.515,0.826 0.021,0.399 0.070,0.724 0.097,0.724 0.028,0 0.070,-0.359 0.097,-0.792 0.021,-0.440 0.070,-0.819 0.097,-0.839 0.028,-0.027 0.459,0.081 0.953,0.237 0.501,0.162 1.461,0.460 2.136,0.677 0.682,0.210 1.281,0.399 1.343,0.420 0.090,0.034 0.104,-0.061 0.104,-0.691 0,-0.460 -0.035,-0.792 -0.090,-0.887 -0.042,-0.081 -0.912,-0.792 -1.928,-1.577 -1.016,-0.792 -1.865,-1.456 -1.893,-1.483 -0.028,-0.027 0.021,-0.454 0.111,-0.955 0.090,-0.501 0.188,-1.185 0.216,-1.516 0.049,-0.575 0.056,-0.603 0.257,-0.711 0.731,-0.386 1.350,-1.103 1.566,-1.835 0.348,-1.171 -0.132,-2.620 -1.079,-3.249 -0.195,-0.129 -0.355,-0.257 -0.362,-0.291 0,-0.027 0.230,-0.047 0.515,-0.047 0.348,0 1.058,0.108 2.178,0.332 l 1.656,0.338 4.036,1.896 c 2.220,1.043 4.176,1.970 4.350,2.051 l 0.313,0.156 0.021,0.657 c 0.007,0.366 0.042,0.663 0.077,0.663 0.090,0 0.146,-1.956 0.063,-2.336 -0.188,-0.860 -0.494,-1.198 -2.436,-2.647 l -1.601,-1.198 0.042,-0.278 c 0.084,-0.562 0.125,-1.909 0.063,-2.173 l -0.063,-0.271 -0.466,-0.020 c -0.452,-0.020 -0.466,-0.014 -0.515,0.169 -0.028,0.102 -0.056,0.548 -0.056,0.982 0,0.440 -0.014,0.799 -0.035,0.799 -0.035,0 -2.199,-1.604 -2.798,-2.072 l -0.181,-0.135 0.097,-0.426 c 0.063,-0.264 0.097,-0.691 0.084,-1.144 l -0.021,-0.724 -0.445,-0.020 c -0.257,-0.014 -0.480,0.014 -0.522,0.054 -0.042,0.041 -0.090,0.413 -0.111,0.819 l -0.035,0.745 -2.206,-1.645 -2.206,-1.645 -0.007,-2.166 C 67.391,4.730 67.363,4.168 67.085,2.814 66.911,1.981 66.730,1.500 66.417,1.067 66.194,0.756 66.055,0.722 65.811,0.918 Z"/></g></svg>