<svg version="1.1" xmlns="http://www.w3.org/2000/svg" viewBox="-4.8 -3.5 34 34" width="120" height="120"><g><path paint-order="stroke" fill="#fff" stroke="#000" stroke-width="1.5" d="M 13.86,26.47 12.48,26.44 12.18,26.22 11.88,26.43 H 10.56 L 10.26,24.26 9.76,23.84 9.74,23.06 2.20,22.66 1.94,23.63 c 0,0 -0.42,-0.05 -0.32,-3.58 l 0.30,-1.07 0.21,1.03 1.20,-1.46 -0.02,-1.80 -0.15,-0.08 0.14,-0.18 c 0,0 0.02,-0.57 0.20,-0.66 0,0 0.20,0.02 0.20,0.64 l 0.14,0.16 -0.12,0.12 v 1.30 l 2.60,-3.36 c 0,0 -0.04,-3.68 0.56,-3.97 0,0 0.37,-0.33 0.52,2.57 L 10.01,9.96 10.02,9.61 10.36,9.01 10.50,7.07 10.78,6.86 10.84,5.89 8.50,6.57 V 5.60 l 2.65,-2.70 c 0,0 0.22,-3.13 1.05,-4.58 0,0 0.80,1.18 1.05,4.58 l 2.65,2.70 v 0.96 l -2.32,-0.67 0.05,0.95 0.28,0.22 0.17,2.06 0.28,0.44 0.05,0.40 2.62,3.38 c 0,0 0.10,-2.63 0.50,-2.60 0,0 0.55,-0.17 0.55,3.96 l 2.63,3.35 0.01,-1.29 -0.15,-0.10 0.14,-0.12 c 0,0 0.02,-0.70 0.17,-0.70 0,0 0.21,-0.12 0.20,0.66 l 0.15,0.12 -0.14,0.14 v 1.80 l 1.21,1.49 0.15,-1.10 0.30,1.10 c 0,0 0.20,3.19 -0.25,3.53 l -0.26,-0.90 -7.60,0.36 0.02,0.83 -0.50,0.36 z"/><path fill="none" stroke="#000" stroke-width="0.6" d="M 13.69,6.55 13.86,12.79 l 0.32,5.97 c 0,0 0.12,4.31 -0.01,6.05 m -1.99,-1.64 v 7.07 M 10.21,24.81 C 10.02,23.09 10.18,18.68 10.18,18.68 l 0.34,-5.94 0.18,-6.15"/></g></svg>