<svg version="1.1" xmlns="http://www.w3.org/2000/svg" viewBox="-10 -10 380 373" width="23" height="32"><g><path paint-order="stroke" fill="#fff" stroke="#000" stroke-width="16" d="M160.574 263.98c2.88 19.23 5.92 26.17 5.61 29.66.04 1.3-.3 2.17-.93 2.67-7.24 5.72-50.22 32.65-50.66 34.44-.76 2.3-.53 12.26.12 12.92l56.5-13.24c2.01 7.89 4.2 14.9 6.43 22.07h4.91c2.23-7.16 4.42-14.18 6.43-22.07l56.5 13.24c.65-.65.88-10.62.12-12.92-.44-1.78-43.42-28.72-50.67-34.44-.62-.5-.96-1.38-.93-2.67-.3-3.5 2.73-10.43 5.61-29.66 2.43-20.77 1-53.35 1.54-78.49h27.68c-.35 2.48 1.18 7.97 2.1 7.79 1.6-.84 1.85-5.49 1.83-8.28h5.81c.22 1.21.39 3.83 1.3 4.01 1.13 0 1.24-3.07 1.44-4.01 9.06-.15 9.09.66 22.46 4.28.6.15 1.11.51 1.14 1.11-.1 3.12.49 8.1 2 8.25 1.49-.62 1.9-5.29 1.99-7.76l33.56 10.1c-.11 4.05.39 8.45 1.75 9.14 1.3.16 1.96-5.45 2.43-7.8l50.94 15.49c.63 2.2-.41 4.93 1.17 4.83.34.02.69-.15.77-.53.26-3.24.3-6.89.28-9.93l-.12-6.34c-.1-1.34-.06-2.72-1.95-4.33-7.72-5.4-73.22-37.45-107.72-56.62-2.87-1.59-2.62-1.71-2.81-2.26-.14-1.19 1.33-1.04 1.52-2.13.8-1.09 4.16-26.76.37-35.02l-18.37.3c-.3 0-.16.37-.3.6-2.85 11.04-1.55 17.15-.25 28.62a610 610 0 0 1-25.56-13.47c-1.03-.84-2.79-3.24-2.86-5.2l-1.03-74.98c-.02-10.65-10.22-33.63-16.25-38.93a6.64 6.64 0 0 0-4.14-1.92c-.15 0-2.32.2-4.22 1.92-6.03 5.3-16.22 28.28-16.24 38.93l-1.32 74.99c-.07 1.94-1.83 4.35-2.86 5.19-7.05 4.05-17.39 9.35-25.56 13.47 1.3-11.47 2.6-17.58-.24-28.62-.14-.23 0-.6-.3-.61l-18.38-.3c-3.78 8.27-.42 33.94.38 35.03.19 1.09 1.66.94 1.52 2.13-.2.55.05.67-2.81 2.26-34.5 19.17-100 51.2-107.72 56.62-1.9 1.61-1.86 2.99-1.96 4.33 0 1.68-.37 9.79.17 16.27.08.38.42.55.77.53 1.58.1.54-2.62 1.16-4.83 2.36-1.05 35.27-10.8 50.94-15.49.48 2.35 1.13 7.96 2.43 7.8 1.37-.7 1.87-5.09 1.75-9.14l33.56-10.1c.09 2.47.5 7.14 2 7.76 1.5-.15 2.09-5.14 2-8.25.02-.6.54-.96 1.14-1.1 13.37-3.63 13.4-4.45 22.45-4.3.2.95.32 4.03 1.44 4.02.92-.18 1.08-2.8 1.3-4.01h5.81c-.02 2.8.23 7.44 1.83 8.28.93.18 2.45-5.31 2.1-7.79h27.69c.47 26.24-1.3 62.82 1.41 78.49z"/></g></svg>