<svg version="1.1" xmlns="http://www.w3.org/2000/svg" viewBox="-10 -10 380 415" width="23" height="32"><g><path paint-order="stroke" fill="#fff" stroke="#000" stroke-width="16" d="m359.814 226.26-.13-6.33c-.1-1.34-.06-2.72-1.95-4.34-7.72-5.4-73.22-37.44-107.72-56.6-2.87-1.6-2.62-1.73-2.81-2.27-.14-1.19 1.33-1.04 1.52-2.13.8-1.1 4.16-26.77.37-35.03l-18.37.3c-.3 0-.16.38-.3.6-2.85 11.05-1.55 17.16-.25 28.62a588 588 0 0 1-25.56-13.47c-1.03-.83-2.79-3.24-2.86-5.18-.84-5.06-.6-83.1-1.17-89.08-.02-10.65-10.22-33.63-16.25-38.93a6.64 6.64 0 0 0-4.14-1.92c-.15 0-2.32.2-4.21 1.92-6.04 5.3-16.23 28.28-16.25 38.92-.58 5.99-.33 84.03-1.18 89.08-.07 1.95-1.83 4.36-2.86 5.2-7.05 4.05-17.39 9.35-25.56 13.46 1.3-11.46 2.6-17.57-.24-28.62-.14-.22 0-.6-.3-.6l-18.38-.3c-3.78 8.26-.42 33.93.38 35.03.19 1.09 1.66.94 1.52 2.13-.2.54.05.67-2.81 2.26-34.5 19.17-100 51.2-107.73 56.61-1.89 1.62-1.85 3-1.95 4.33 0 1.69-.37 9.8.17 16.28.08.38.42.54.76.52 1.59.1.55-2.62 1.17-4.83 2.36-1.04 35.27-10.8 50.94-15.48.47 2.34 1.13 7.95 2.43 7.8 1.36-.7 1.87-5.1 1.75-9.15l33.56-10.1c.09 2.47.5 7.14 2 7.76 1.5-.15 2.09-5.13 2-8.24.02-.6.53-.96 1.14-1.11 13.37-3.62 13.4-4.44 22.45-4.29.2.94.32 4.02 1.44 4.01.92-.17 1.08-2.8 1.3-4h5.81c-.02 2.79.23 7.44 1.83 8.27.92.18 2.45-5.3 2.1-7.78h27.69c.3 40.33-.65 95.32 1.47 108.16 2.88 19.23 5.91 26.17 5.61 29.65.04 1.3-.3 2.18-.93 2.68-7.25 5.72-50.23 32.65-50.67 34.44-.76 2.3-.53 12.26.13 12.92l56.5-13.24c2 7.89 4.2 14.9 6.42 22.07h4.92a424 424 0 0 0 6.42-22.07l56.5 13.24c.65-.65.89-10.62.13-12.92-.44-1.78-43.42-28.72-50.67-34.44-.63-.5-.97-1.38-.93-2.67-.3-3.5 2.73-10.43 5.61-29.66 2.12-12.83 1.17-67.83 1.47-108.16h27.69c-.35 2.48 1.17 7.97 2.1 7.78 1.6-.83 1.85-5.48 1.83-8.27h5.8c.23 1.2.4 3.83 1.31 4 1.12.02 1.23-3.07 1.44-4 9.05-.16 9.08.66 22.45 4.28.6.15 1.12.5 1.15 1.1-.1 3.12.49 8.1 2 8.25 1.49-.62 1.9-5.28 1.99-7.76l33.56 10.1c-.12 4.06.39 8.45 1.75 9.15 1.3.15 1.96-5.46 2.43-7.8l50.94 15.49c.62 2.2-.42 4.92 1.17 4.83.34.02.68-.15.76-.53.27-3.24.31-6.9.29-9.94z"/></g></svg>