<svg version="1.1" xmlns="http://www.w3.org/2000/svg" viewBox="-10 -10 380 485" width="23" height="32"><g><path paint-order="stroke" fill="#fff" stroke="#000" stroke-width="16" d="M160.674 375.1c2.88 19.24 5.91 26.17 5.61 29.66.04 1.3-.3 2.18-.93 2.67-7.24 5.72-50.22 32.66-50.66 34.45-.76 2.3-.53 12.26.12 12.92l56.5-13.25c2 7.9 4.2 14.91 6.42 22.08h4.92c2.23-7.16 4.42-14.18 6.43-22.08l56.5 13.25c.65-.66.88-10.62.12-12.92-.44-1.79-43.42-28.72-50.67-34.44-.62-.5-.96-1.38-.93-2.68-.3-3.49 2.73-10.42 5.61-29.65 3.14-16.96 1.06-90.04 1.44-134.91h27.68c-.35 2.47 1.18 7.96 2.1 7.78 1.6-.84 1.85-5.48 1.83-8.28h5.81c.22 1.21.39 3.84 1.3 4.01 1.13.01 1.24-3.07 1.44-4 9.06-.16 9.09.65 22.46 4.28.6.14 1.11.5 1.14 1.1-.1 3.12.49 8.1 2 8.25 1.5-.62 1.9-5.29 2-7.76l33.55 10.1c-.11 4.05.4 8.45 1.76 9.14 1.3.16 1.95-5.45 2.43-7.8l50.93 15.49c.63 2.2-.41 4.93 1.17 4.83.34.02.69-.14.77-.53.27-3.24.3-6.89.28-9.93l-.12-6.34c-.1-1.34-.06-2.72-1.95-4.33-7.72-5.4-73.22-37.45-107.72-56.61-2.87-1.6-2.62-1.72-2.81-2.26-.14-1.2 1.33-1.05 1.52-2.13.8-1.1 4.16-26.77.37-35.03l-18.37.3c-.3 0-.16.38-.3.6-2.85 11.05-1.55 17.15-.24 28.62-8.18-4.12-18.52-9.42-25.57-13.47-1.03-.84-2.79-3.24-2.86-5.19l-1.52-129.7c-.02-10.64-10.21-33.62-16.25-38.92a6.64 6.64 0 0 0-4.13-1.92c-.16 0-2.32.2-4.22 1.92-6.03 5.3-16.23 28.28-16.25 38.93l-.83 129.69c-.06 1.95-1.83 4.35-2.85 5.19-7.06 4.05-17.4 9.35-25.57 13.47 1.3-11.47 2.61-17.58-.24-28.62-.14-.23 0-.6-.3-.6l-18.38-.3c-3.78 8.26-.42 33.93.38 35.02.19 1.1 1.66.94 1.52 2.13-.19.55.05.67-2.81 2.26-34.5 19.17-100 51.21-107.72 56.62-1.9 1.61-1.86 2.99-1.95 4.33-.01 1.68-.38 9.79.16 16.27.08.39.42.55.77.53 1.58.1.54-2.62 1.16-4.83 2.37-1.05 35.27-10.8 50.94-15.48.48 2.34 1.14 7.95 2.43 7.8 1.37-.7 1.87-5.1 1.75-9.15l33.57-10.1c.08 2.47.5 7.14 1.99 7.76 1.5-.15 2.1-5.13 2-8.25.02-.6.54-.96 1.14-1.1 13.37-3.63 13.4-4.44 22.46-4.29.2.94.3 4.02 1.43 4.01.92-.18 1.08-2.8 1.3-4h5.81c-.01 2.78.23 7.43 1.83 8.27.93.18 2.45-5.3 2.1-7.78h27.69c.5 44.97-.9 117.74 1.5 134.9z"/></g></svg>