<svg version="1.1" xmlns="http://www.w3.org/2000/svg" viewBox="-50 -50 1370 1353" width="31" height="31"><g><path paint-order="stroke" fill="#fff" stroke="#000" stroke-width="42" d="M640.424 1251.25c1.83-1.53 3.8-32.27 6.55-53.53l195.5 54.86c1.46 0-2.95-42.47-4.87-46.95-.82-1.92-2.89-5-4.74-6.73-61.32-38.85-113.44-66.94-170.42-102.2 14.04-101.98 28.3-176.49 31.36-236.63 2.42-64.73 1.9-89.45 1.9-158a238.4 238.4 0 0 0 10.29-45.93l79.36.94c.64 10.63 4.56 30.22 8.15 30.42 1.8.01 7.3-16.95 7.33-23.64.03-5.85 1.2-7.27 4.47-7.27 17 4.17 37.8 12.02 55.51 18.1-.57 8.16 4.26 30.31 8.26 31.41 3.21-.48 6.95-20.08 8.12-25.27l52.15 17.53c1.88 12.2 4.92 29.7 8.72 31.1 3.44.79 7.1-21.05 8.56-24.84 1.15-.01 50.81 17.18 51.5 17.83 2.09 10.83 5.7 29.92 8.9 30.99 3.44 1 7.17-19.9 8.21-25.3 32.2 8.64 234.77 99.3 244.66 106.02 3.17 1.94 6.28 4.17 9.4 6.34.36-6.3.43-12.19.66-18.49-7.3-17.2-16.23-36.38-16.1-41.66 0-3.58-.42-5.35-2.61-7.49l-413.4-257.15c0-.74 1.07-1.44 2.43-2.1 3.88-5.52 7.02-32.88 11.3-45.13.1-5.05 8.47-1.33 8-4.5 5.58-18.8 6.18-81.92 1.68-103.47-1.14-.93-61.73-1.84-61.49.32-6.39 32.18-3.2 77.43 1.42 104.14 2.63.47 5.72.27 8.51.31 2.93 14.19 5.05 24.57 7.06 37.92l-120.5-73.55c-1.24-92.1.3-231-2.17-260.1C691.574 110.06 655.244.52 635.224.5c-20.01.03-56.34 109.57-58.84 169.04-2.48 29.11-.93 168-2.18 260.1l-120.49 73.56c2.01-13.35 4.13-23.74 7.05-37.92 2.8-.05 5.89.16 8.52-.32 4.61-26.7 7.8-71.95 1.42-104.13.24-2.16-60.35-1.26-61.5-.33-4.5 21.56-3.89 84.67 1.7 103.49-.48 3.16 7.9-.56 7.98 4.5 4.28 12.24 7.43 39.6 11.31 45.12 1.35.66 2.44 1.36 2.42 2.1-144.21 93.67-277.18 170.05-413.4 257.15-2.19 2.13-2.61 3.9-2.61 7.49.14 5.28-8.8 24.46-16.1 41.66l.65 18.5c3.12-2.18 6.24-4.42 9.4-6.35 9.9-6.71 212.46-97.38 244.66-106.01 1.04 5.39 4.77 26.3 8.21 25.29 3.21-1.07 6.82-20.16 8.9-31 .7-.64 50.35-17.83 51.5-17.82 1.48 3.8 5.13 25.63 8.57 24.85 3.8-1.4 6.84-18.9 8.71-31.11l52.16-17.53c1.17 5.2 4.9 24.79 8.11 25.27 4-1.1 8.83-23.26 8.27-31.42 17.7-6.07 38.5-13.93 55.51-18.1 3.26 0 4.44 1.43 4.46 7.28.03 6.7 5.54 23.64 7.34 23.64 3.59-.2 7.5-19.8 8.15-30.42l79.36-.94a238.5 238.5 0 0 0 10.29 45.93c0 68.55-.52 93.26 1.9 158 3.06 60.14 17.32 134.65 31.35 236.62l-170.41 102.21a23.9 23.9 0 0 0-4.75 6.73c-1.91 4.47-6.32 46.95-4.87 46.95l195.49-54.89c3.34 22.79 4.74 52.12 6.75 53.58.84 1.47 9.27 1.38 10.2-.02z"/></g></svg>