<svg version="1.1" xmlns="http://www.w3.org/2000/svg" viewBox="-20 -20 562 578" width="31.5" height="31.5"><g><path paint-order="stroke" fill="#fff" stroke="#000" stroke-width="17" d="M237.77 72.911c-1.33 31.55-.18 76.46-.65 103.26-.41 5.93-12.66 14.72-20.17 20.6-8.23 6-17.4 12.8-25.3 19.22 1.78-11.25 2.67-24.53-.85-36.54-.36-.8-.84-1.46-1.81-1.62a139.6 139.6 0 0 0-23.52 0c-.42-.03-1.51.6-1.72 1.18-3.45 9.7-3.78 24.81.65 45.74.2.95 2.63.48 3.75.71l.66 2.6 2.49.07v2.92c-47.16 34.9-116.96 79.7-159.74 112.83-3.1 2.71-7.24 8.15-8.85 12.58-1.93 3.35-3.02 18.22-1.48 17.74 1.11-.04-.15-7.84 5.11-11.96 5-6.14 88.92-38.18 115.75-49.92.32 1.77 1.28 5.92 1.84 6.05 1.22-.63 1.86-5.25 2.55-7.85l31.23-12.26c.34 1.96 1.3 6.51 1.96 6.44.89-.39 2.03-5.01 2.53-8.04 10.54-4 21.91-6.29 34-6.73.37 2.36 1.41 7.66 2.14 7.59 1.2-.76 1.83-4.94 2.52-7.87a735 735 0 0 1 33.22-.76c.07 9.1.74 24.91 3.2 30.65.19 20.22-.58 67.09.83 86.7 1.21 17.82 5.75 39.31 10.65 58.48-.1 2.33-.95 4.6-2.48 6.37-16.17 13.36-37.07 27.7-53.92 42.29-5.92 6.27-6.03 12.24-8.74 24.76l71.52-25.56a127 127 0 0 0 3.77 12.72h.96c.16 3.44.24 10.32 1.2 10.99.97-.67 1.07-7.53 1.23-10.97h.95a127 127 0 0 0 3.78-12.73l71.51 25.57c-2.7-12.52-2.8-18.49-8.73-24.76-16.85-14.6-37.75-28.93-53.93-42.3a10.43 10.43 0 0 1-2.47-6.36c4.9-19.17 9.43-40.66 10.65-58.5 1.41-19.6.64-66.46.83-86.69 2.45-5.73 3.12-21.55 3.2-30.64 10.38.04 22.88.22 33.22.76.68 2.93 1.32 7.1 2.52 7.86.73.08 1.77-5.22 2.14-7.58a106.2 106.2 0 0 1 34 6.73c.5 3.03 1.64 7.65 2.53 8.04.65.07 1.61-4.49 1.95-6.44 8.77 3.19 22.49 8.72 31.23 12.26.7 2.6 1.33 7.22 2.56 7.85.56-.13 1.52-4.28 1.84-6.05 26.83 11.74 110.74 43.78 115.75 49.92 5.26 4.12 4 11.92 5.1 11.96 1.55.48.46-14.39-1.47-17.74-1.61-4.43-5.75-9.87-8.85-12.59-42.78-33.12-112.58-77.92-159.74-112.83v-2.91l2.48-.08.67-2.6c1.12-.22 3.54.24 3.75-.7 4.43-20.93 4.1-36.04.64-45.74-.2-.58-1.29-1.2-1.71-1.19a139.6 139.6 0 0 0-23.52.01c-.97.16-1.45.82-1.8 1.62-3.53 12.01-2.64 25.28-.86 36.54a624 624 0 0 0-25.3-19.22c-7.51-5.88-19.76-14.67-20.17-20.6-.47-26.8.67-71.72-.66-103.26-.33-14.07-11.85-71.55-23.3-72.43-11.46.86-22.98 58.34-23.31 72.41z"/></g></svg>