<svg version="1.1" xmlns="http://www.w3.org/2000/svg" viewBox="-7 -6 40 40" width="42" height="42"><g><path paint-order="stroke" fill="#fff" stroke="#000" stroke-width="1.1" d="m 11.60,21.60 c 0,0 0.50,-0.30 0.30,-1 0,0 -0.30,-0.70 -0.30,-3.60 v -2 c 0,0 -0.20,-0.90 -0.20,-2.10 l -1.70,0.50 c 0,0 -0.07,0.39 -0.15,0.41 C 9.47,13.83 9.40,13.40 9.40,13.40 l -1.34,0.60 c 0,0 -0.04,0.46 -0.15,0.45 -0.10,-0.01 -0.15,-0.35 -0.15,-0.35 L 6.50,14.60 c 0,0 0.03,0.66 -0.12,0.66 -0.13,0.00 -0.13,-0.59 -0.13,-0.59 l -1.42,0.65 c 0,0 -0.02,0.65 -0.14,0.67 C 4.59,16.00 4.60,15.40 4.60,15.40 l -1.20,0.50 c 0,0 -0.02,0.66 -0.14,0.67 C 3.14,16.58 3.15,15.99 3.15,15.99 L -2.20,18.30 c 0,0 -0.09,0.62 -0.20,0.60 -0.13,-0.02 0,-2 0.60,-2.40 L 3,12.90 C 2.78,12.08 2.69,11.33 2.80,10.70 c 0,0 0,-0.30 0.20,-0.30 H 4.19 C 4.48,10.52 4.30,11.27 4.30,12 L 7,9.90 c 0,0 -0.30,-0.60 -0.20,-2 0,0 0,-0.30 0.20,-0.50 H 8.09 C 8.29,7.56 8.27,8.39 8.20,9 8.20,9 11.60,6.50 11.60,6 V 3.20 c 0,0 0,-4 1.30,-4.20 0,0 1,-0.30 1.30,4 v 3 c 0,0 -0.20,0.30 3.40,3 V 8 c 0,0 0,-0.40 0.30,-0.50 h 0.80 c 0,0 0.30,0 0.30,0.40 0,0 0,1.70 -0.20,2.20 l 2.90,2 c -0.12,-0.50 -0.17,-1.59 0.17,-1.60 h 1.09 c 0.37,-0.01 0.29,1.77 -0.06,2.50 l 4.60,3.40 c 0.53,0.36 0.88,2.51 0.80,2.50 C 28.25,18.90 28,18.30 28,18.30 l -5.27,-2.34 c 0,0 0.01,0.62 -0.13,0.60 C 22.47,16.54 22.50,15.90 22.50,15.90 l -1.35,-0.53 c 0,0 0.02,0.70 -0.12,0.66 C 20.91,15.99 20.90,15.30 20.90,15.30 l -1.30,-0.60 c 0,0 -0.02,0.73 -0.13,0.70 C 19.33,15.37 19.30,14.60 19.30,14.60 l -1.20,-0.50 c 0,0 -0.08,0.31 -0.20,0.30 C 17.75,14.39 17.70,14 17.70,14 l -1.20,-0.50 c 0,0 -0.05,0.40 -0.20,0.40 -0.15,0 -0.20,-0.40 -0.20,-0.40 L 14.40,13 c 0,0 0,1.40 -0.20,2 v 2 c 0,0 0,2.70 -0.30,3.80 0,0 -0.20,0.40 0.10,0.60 l 4.30,3.50 c 0,0 0.50,0.20 0.70,2 l -5.70,-2.30 v 0.50 c -0.24,2.90 -0.53,2.90 -0.70,0 v -0.40 l -5.80,2.20 c 0,0 0.30,-1.70 0.50,-2 z"/></g></svg>