<svg version="1.1" xmlns="http://www.w3.org/2000/svg" viewBox="-9.5 0 140 140" width="31" height="34"><g><path paint-order="stroke" fill="#fff" stroke="#000" stroke-width="3.5" d="m 60.2353,6.87783 L62.5882,9.40724 L63.1312,5.07692 L63.7059,11.3484 L67.1765,19.0543 L67.4706,39.5837 L70.4118,45.2896 L77.2941,47.8778 L77,43.9367 L78.2941,39.6425 L72.7059,38.7149 L77.4118,38.2896 L79.1176,35.8778 L80.7647,38.2308 L87,38.8914 L80.8235,39.9367 L81.2941,43.4661 L80.9412,48.6199 L93.5294,52.9367 L93.5294,48.3484 L94.2941,44.3484 L89.1765,43.819 L94.1176,42.7602 L95.5882,40.4661 L97.1176,42.7602 L102.471,43.5747 L97.1176,44.5249 L98,48.2896 L97.3756,54.0905 L118.683,62.0181 L118.706,68.6425 L100.941,67.2443 L99.4118,70.0543 L98.9412,67.1131 L91.5294,66.267 L90.7647,68.8778 L89.7059,66.2896 L83.8235,65.7738 L82.9412,69.1719 L82.3529,65.6516 L73.4118,64.819 L72.4706,68.9955 L71.5294,64.5837 L70.7059,68.7602 L67.7647,71.2308 L67.5294,91.5131 L63.9882,110.925 L85.3529,127.348 L86.2941,132.878 L61.5882,123.348 L60.3529,127.466 L59.4118,123.231 L33.5882,132.29 L34.8824,126.878 L56.2353,110.819 L53,91.3484 L52.5882,72.1131 L49.7059,68.7602 L49.1765,64.6425 L48.0588,68.5249 L46.8824,64.8869 L38.4706,65.5747 L37.2941,69.3484 L36.3529,65.9955 L30.6471,66.1719 L29.7059,69.2896 L28.5294,66.3394 L21.4118,67.0679 L20.7059,70.1719 L19.5294,67.1719 L1.39819,68.5611 L1.65611,61.7828 L22.8824,54.2896 L22.5294,48.7014 L23.5882,43.819 L17.7059,43.4661 L23.1765,42.4661 L24.5882,40.1719 L25.8235,42.4661 L31.7059,43.4796 L26.1176,44.3484 L26.7647,48.7602 L26.0588,53.0679 L38.9412,48.7964 L39.1765,43.8778 L40.1176,39.4072 L33.2353,39.0543 L39.7647,37.7014 L41.2941,35.1719 L42.1765,38.0543 L48,38.8326 L42.6471,40.0543 L43.2805,44.0543 L42.8824,47.5837 L50,44.9955 L52.5294,40.1131 L53,18.5249 L56.1765,11.2308 z"/></g></svg>