<svg version="1.1" xmlns="http://www.w3.org/2000/svg" viewBox="-3.7 0 32 32" width="28" height="28"><g><path paint-order="stroke" fill="#fff" stroke="#000" stroke-width="1.3" d="M13.1 3.13l.11 3c.37 4.18.14 6.3.14 6.3.1.7.59.76.59.76l6.32.7.41-.28v-1.02c.37-2.88.69 0 .69 0v3.55c.03.68-.3 1.6-.3 1.6h-.17a4.2 4.2 0 01-.21-1.14l-.1-.1-6.84 1.44a53.86 53.86 0 01-.46 4.51l3.34.97c.2.48.14 1.3.14 1.3l-4.47.52-4.47-.51s-.06-.83.13-1.3l3.35-.98s-.38-2.55-.46-4.5L4 16.5l-.1.1s-.01.52-.21 1.13H3.5s-.33-.92-.3-1.6v-3.55s.32-2.88.7 0v1.02l.4.27 6.33-.69s.49-.05.58-.76c0 0-.23-2.12.14-6.3l.12-3s.08-1.72.8-1.74c.73.02.81 1.74.81 1.74z"/><path fill="none" stroke="#000" stroke-width="0.4" d="M10.81 13.65l.75-.07c.45.92.7 2.13.7 2.13l-.01 10.4v-10.4s.24-1.21.68-2.13l.75.07"/></g></svg>