<svg version="1.1" xmlns="http://www.w3.org/2000/svg" viewBox="33.2 9 32 32" width="120" height="120"><g><path paint-order="stroke" fill="#fff" stroke="#000" stroke-width="1.5" d="M49.14 36.015c-.07-.194-.09-.223-.176-.238-.13-.024-.14-.068-.14-.664 0-.277-.012-.504-.027-.504-1.378.334-2.455.604-3.915.961-.014 0-.08-.166-.15-.37-.154-.445-.17-.703-.055-.852 1.33-.883 2.31-1.45 3.795-2.349-.111-.93-.214-1.833-.313-2.697l-.525.021c-.236-.807-.356-1.716-.469-2.41-2.494.435-5.205 1.014-7.794 1.527-.013 0-.024-.115-.024-.256 0-.486.29-1.554.513-1.893.909-.79 2.132-1.51 3.348-2.26.066.04.052.226.08.286l1.15-.515c1.223-.529 1.674-.858 2.698-1.528.127-.555.072-.835.106-1.538l.211-.241.568.036.025-.323c.02-.278.01-.326.01-.326l.184-.027c-.14-9.213 2.22-8.012 1.898.024l.19.02.01.318.01.317h.61l.16.214c.02.515.026.708.068 1.458 1 .74 2.136 1.29 2.77 1.62l1.213.58.036-.308 1.527.962c1.79 1.128 1.827 1.158 1.988 1.636.16.475.298 1.111.313 1.441.008.167.006.303-.006.303-2.779-.55-4.895-.975-7.884-1.572l-.018.127c-.021.777-.206 1.64-.314 2.274-.16.028-.354.03-.548.048-.118.88-.24 1.79-.324 2.673 1.294.783 2.32 1.411 3.686 2.261.062.053.089.126.117.314.033.225.029.27-.06.586a2.575 2.575 0 01-.12.366c-1.355-.264-2.437-.531-3.87-.862l-.186-.042.017.571c-.009.648-.11.572-.11.572-.165.06-.101.15-.162.24l-.032.24-.079-.22z"/></g></svg>