<svg version="1.1" xmlns="http://www.w3.org/2000/svg" viewBox="-7.8 0 80 80" width="32" height="32"><g><path paint-order="stroke" fill="#fff" stroke="#000" stroke-width="3" d="M 30.82,61.32 29.19,54.84 29.06,60.19 27.70,60.70 22.27,60.63 21.68,59.60 l -0.01,-2.71 6.26,-5.52 -0.03,-3.99 -13.35,-0.01 -3e-6,1.15 -1.94,0.00 -0.01,-1.31 0.68,-0.65 L 13.30,37.20 c -0.01,-0.71 0.57,-0.77 0.60,0 l 0.05,1.57 0.28,0.23 0.26,4.09 L 19.90,38.48 c 0,0 -0.04,-1.26 0.20,-1.28 0.16,-0.02 0.20,0.98 0.20,0.98 l 4.40,-3.70 c 0,0 0.02,-1.28 0.20,-1.28 0.14,-0.00 0.20,0.98 0.20,0.98 l 1.80,-1.54 C 27.02,28.77 28.82,25.58 29,21.20 c 0.06,-1.41 0.23,-3.34 0.86,-3.85 0.21,-4.40 1.32,-11.03 2.39,-11.03 1.07,0 2.17,6.64 2.39,11.03 0.63,0.51 0.80,2.45 0.86,3.85 0.18,4.38 1.98,7.57 2.10,11.44 l 1.80,1.54 c 0,0 0.06,-0.99 0.20,-0.98 0.18,0.01 0.20,1.28 0.20,1.28 l 4.40,3.70 c 0,0 0.04,-1.00 0.20,-0.98 0.24,0.03 0.20,1.28 0.20,1.28 l 5.41,4.60 0.26,-4.09 0.28,-0.23 L 50.59,37.20 c 0.03,-0.77 0.61,-0.71 0.60,0 l 0.02,9.37 0.68,0.65 -0.01,1.31 -1.94,-0.00 -3e-6,-1.15 -13.35,0.01 -0.03,3.99 6.26,5.52 L 42.81,59.60 42.22,60.63 36.79,60.70 35.43,60.19 35.30,54.84 33.67,61.32 Z"/><path fill="none" stroke="#000" stroke-width="1.1" d="m 32.30,49.38 -0.02,13.99"/></g></svg>