<svg version="1.1" xmlns="http://www.w3.org/2000/svg" viewBox="-4 -3 32 32" width="25" height="25"><g><path paint-order="stroke" fill="#fff" stroke="#000" stroke-width="1.3" d="M22.2 19.36h.3v-.23h.1v-.12h.15l-.1-.34h-.17v-.16h.12v-2.28l-.09-.1v-1.79c0-.37-.16-2.3-.3 0v.71s-.27.26-.26.6v.51s-.16.03-.17.2v.41l-7.4-3.5s0-1.36-.3-3c0 0-.3-1.14-.56-2.9 0 0-.21-2.73-.69-2.83l-.08-2.84s-.18-1.95-.8-2.92c-.62.97-.7 2.92-.7 2.92l-.09 2.84c-.48.1-.69 2.83-.69 2.83-.26 1.76-.55 2.9-.55 2.9-.31 1.64-.3 3-.3 3l-7.41 3.5v-.41c0-.17-.16-.2-.16-.2v-.52c0-.33-.27-.59-.27-.59v-.71c-.14-2.3-.29-.37-.3 0v1.8l-.09.09v2.28h.13v.16h-.18l-.1.34h.15v.12h.1v.23h.3m20.4 0l-.35.41-7.44.29.67 1.86v1.06l2.63 2.83v1.14c-.03.6-.83.39-.83.39l-3.35-1.65-.39.81h-.78c-.17 0-.35-1.08-.35-1.08s-.19 1.08-.36 1.08h-.78l-.38-.8-3.36 1.64s-.8.22-.82-.4v-1.13l2.61-2.83v-1.06l.68-1.86-7.43-.29-.36-.41"/><path fill="none" stroke="#000" stroke-width="0.4" d="M15.04 23.81l-1.42-.66s-.22-3.7.2-4.85m-4.84 5.5l1.4-.66s.23-3.69-.19-4.85"/></g></svg>