<svg version="1.1" xmlns="http://www.w3.org/2000/svg" viewBox="-4 -1 40 40" width="120" height="120"><g><path paint-order="stroke" fill="#fff" stroke="#000" stroke-width="1.7" d="m 16.85,2.96 c 0.38,3.4 0.78,5.93 0.78,5.93 l 0.29,0.72 0.77,-0.84 0.38,0.73 0.19,4.5 0.71,1.41 5.85,3.95 v 2.84 l -6.47,1.61 0.5,1.17 2.84,1.92 v 1.6 l -4.85,1.2 -0.63,-4.05 -0.45,0.78 H 15.24 L 14.79,25.65 14.16,29.7 9.31,28.5 v -1.6 l 2.85,-1.92 0.49,-1.17 -6.47,-1.61 v -2.84 l 5.85,-3.95 0.71,-1.4 0.2,-4.51 0.37,-0.73 0.77,0.84 0.3,-0.72 c 0,0 0.4,-2.53 0.77,-5.93 C 15.19,2.27 15.77,1.09 16,1 c 0.209,-0.018 0.78,1.25 0.85,1.96 z"/></g></svg>