<svg version="1.1" xmlns="http://www.w3.org/2000/svg" viewBox="-4.1 0 32 32" width="120" height="120"><g><path paint-order="stroke" fill="#fff" stroke="#000" stroke-width="1.5" d="M12.77 4.94c.15 1.84.06 3.88.06 3.88l.46.17c.22.04.23.03.25.26.03.23.17.4.17.4l2.5 3.86v.85l-2-1.08h-.4l.26.85 1.7 2.28 1.76 1.94v-.38l1.84 2.53.19-.76h.05v-1.48c.14-.66.26-.25.26-.25v-.28c.2-1.26.3 0 .3 0v1.9l.1.1v2.4h-.1v.19h.16l.1.37h-.15v.14h-.08v.23h-.33v.88l-.12.12h-.2v-.82h.08l-.02-.4-5.3.3-.67.41v.46c-.23.1-.3.3-.3.3l-.32 1.42c-.06.17-.18.15-.18.15l-.25 1.64h-1.31l-.25-1.64s-.12.02-.19-.15l-.31-1.41s-.08-.22-.3-.31v-.46l-.67-.4-5.3-.3-.03.4h.1v.81h-.21L4 23.94v-.88h-.33v-.23H3.6v-.14h-.15l.1-.37h.16v-.19H3.6v-2.4l.1-.1v-1.9s.12-1.26.3 0v.28s.13-.41.27.25v1.48h.05l.19.76 1.84-2.53v.38l1.75-1.94 1.7-2.28.26-.85h-.4l-1.99 1.08v-.85l2.5-3.86s.14-.17.17-.4c.02-.23.02-.22.25-.26l.45-.17s-.08-2.04.07-3.88c0 0 .18-1.92.82-3.32.65 1.4.85 3.32.85 3.32z"/><path fill="none" stroke="#000" stroke-width="0.5" d="M13.52 24.7s-.16-.4-.14-.5c.01-.08.24-1 .28-2.33 0 0 0-1.33-.08-2.5-.07-1.18 0-2.77.14-4.16.14-1.4.12-4.17-.05-5.26-.16-1.09-.2-1.64-.2-1.64m-3.1 16.4s.16-.41.14-.5c-.02-.1-.24-1.02-.28-2.34 0 0 0-1.33.08-2.5.07-1.18 0-2.77-.14-4.16a29.67 29.67 0 01.24-6.9"/></g></svg>