<svg version="1.1" xmlns="http://www.w3.org/2000/svg" viewBox="-1 -2 34 34" width="120" height="120"><g><path paint-order="stroke" fill="#fff" stroke="#000" stroke-width="1.5" d="M15.87 29s-.66-.15-.43-2.73l-.02-.43h-1.86v.68h-.19v-1.78h2l-.41-8.6-.57-2.79h-.9v1.09s-.15.4-.25 0v-2.08s-.34.09-.58.2l-10.34-.41-.01-.7 10.93.4v-4.6s.11-.28.24 0v2.38h.55V8.31s.27-2.84 1.95-2.99c0 0 1.62-.27 2.04 2.71L23.04.48l.6.36-4.81 7.33v6.24s-.14.32-.26 0v-1.04h-.88l-.18 1.02s.29.38.56.52l4.67 9.28-.6.24-4.77-9.3-.38 1.1-.5 8.53h1.98v1.73h-.19v-.65h-1.8l-.09.5s.05 2.78-.52 2.66z"/></g></svg>