<svg version="1.1" xmlns="http://www.w3.org/2000/svg" viewBox="-5.2 -4 34 34" width="120" height="120"><g><path paint-order="stroke" fill="#fff" stroke="#000" stroke-width="1.5" d="M12.42 27.46l.17-.64 2.35 1.3h.32s.17-1.51-.23-2.22L13 23.52s.22-3.83.17-6.81l.7-.96 8.27 3.92s.45-3.2-.47-4.48l-7.12-6.96-.09.07-1.25-.93s-.01-1.97-.16-3.8c0 0-.34-4-1.2-4.37-.87.37-1.21 4.38-1.21 4.38-.15 1.82-.16 3.79-.16 3.79l-1.25.93-.1-.07-7.11 6.96c-.92 1.29-.47 4.48-.47 4.48l8.28-3.92.69.96c-.05 2.98.17 6.81.17 6.81L8.64 25.9c-.4.7-.23 2.22-.23 2.22h.32l2.35-1.3.17.64h.58z"/><path fill="none" stroke="#000" stroke-width="0.5" d="M14.36 6.6l-1.16.77s-.37.02-.44 2.33c0 0 .06 2.16.3 3.47 0 0 .14 1.68.1 3.54l1.32 1.36M9.3 6.6l1.16.78s.37.02.43 2.33c0 0-.05 2.16-.3 3.47 0 0-.13 1.68-.09 3.54l-1.32 1.36"/></g></svg>