<svg version="1.1" xmlns="http://www.w3.org/2000/svg" viewBox="-5.8 -3.8 36 36" width="120" height="120"><g><path paint-order="stroke" fill="#fff" stroke="#000" stroke-width="1.5" d="m 13.09,26.20 c 0,0 0.30,-1.70 0.30,-2.80 L 13.94,22.81 13.92,22.07 21.19,21.60 c 0,0 0.20,-1 -0.30,-1.60 l -4,-6.50 c 0,0 0.40,-5.30 -0.70,-5.80 0,0 -0.70,-0.20 -0.60,4.10 l -1.10,-2.10 V 9 c 0,0 0,-0.40 -0.30,-0.60 l -0.10,-0.70 h -0.70 l -0.30,-1.20 V 3.10 c 0,0 -0.25,-2.58 -0.85,-4.48 C 11.65,0.52 11.40,3.10 11.40,3.10 V 6.50 L 11.10,7.70 H 10.40 L 10.30,8.40 C 10,8.60 10,9 10,9 V 9.70 L 8.90,11.80 C 9,7.50 8.30,7.70 8.30,7.70 7.20,8.20 7.60,13.50 7.60,13.50 l -4,6.50 c -0.50,0.60 -0.30,1.60 -0.30,1.60 l 7.27,0.47 -0.02,0.74 L 11.10,23.40 c 0,1.10 0.30,2.80 0.30,2.80 z"/><path fill="none" stroke="#000" stroke-width="0.5" d="M 9.90,9.57 C 10.50,12.57 10.80,15.90 10.80,15.90 l 0.20,4.50 0.01,3.21 M 14.59,9.57 C 13.99,12.57 13.69,15.90 13.69,15.90 l -0.20,4.50 -0.01,3.21"/></g></svg>