<svg version="1.1" xmlns="http://www.w3.org/2000/svg" viewBox="26.7 -3.3 26 26" width="120" height="120"><g><path paint-order="stroke" fill="#fff" stroke="#000" stroke-width="1.5" d="M33.76 6.93l.01.4.2.06.05.07 3.84.45s.18-.36.6-.88c0 0-.26-2.86.6-3.83v-.28l.05-.05s.1-.51.28 0c0 0 .24-.18.3-.15.05.03 1.31.19 1.23 4.3 0 0 .62.84.58.94l3.83-.44.06-.08.23-.08-.01-.4s-.7-.21-4.04-.5l-.12-.13 4.32.01s.43-1.46.88 0l5.11-.07v.06s-4.12.36-4.79.71l-.2-.24.03.52.2.15.06 1.09-.07.14s-.09 1.63-.41 2.37l-.63-.03-.23-1.2-3.91.43s.36.97-.97 3.79l-.1 2.47h1.06s.06-.28.16-.3m0 0s.43-.02-.04 2.41h-4.5s-.46-2.46-.04-2.4c0 0 .12.02.16.29l1.04.01-.08-2.5s-1.2-2.38-.96-3.82l-3.89-.44-.24 1.2-.62.03s-.4-1.1-.43-2.38l-.05-.1.04-1.1.24-.16.01-.5-.2.23s-1.02-.4-4.8-.71v-.07l5.12.05s.42-1.39.86 0h4.34l-.13.14s-3.99.39-4.03.52"/></g></svg>