<svg version="1.1" xmlns="http://www.w3.org/2000/svg" viewBox="-4 -3 32 32" width="120" height="120"><g><path paint-order="stroke" fill="#fff" stroke="#000" stroke-width="1.5" d="M11.54 1.27c-.3.76-.4 1.32-.4 1.32-.15.85-.21 1.62-.21 1.62-.19 1.45-.23 3.91-.23 3.91H9.48l-.09.46a28.8 28.8 0 00.04 2.45l-1.18 1.9-7.05 3.18c-.6.75-.72 2.58-.72 2.58l9.37-2.37.03 1.97-2.61 3.56-1.07 1.74c-.05.84.01 1.6.01 1.6l4.02-1.3.13-.22c.26.17 1.37.06 1.37.06l.36 3.2c.03.11.36-3.2.36-3.2s1.1.1 1.36-.06l.13.23 4.02 1.3s.06-.77.01-1.61l-1.06-1.74-2.61-3.56.02-1.97 9.37 2.37s-.12-1.83-.72-2.58l-7.04-3.18-1.18-1.9s.07-1.09.03-2.45l-.09-.46h-1.22s-.04-2.46-.22-3.9c0 0-.07-.78-.22-1.63 0 0-.1-.56-.4-1.32L12.1.04z"/><path fill="none" stroke="#000" stroke-width="0.5" d="M15.47 10.17l-.72.86s-.35 1.3-.4 2.43c0 0-.1.88-.04 2.09l-.06 4s.01 1.78-.4 4.2l-.52 1.24M8.71 10.17l.72.86s.34 1.3.39 2.43c0 0 .1.88.05 2.09l.06 4s-.02 1.78.39 4.2l.52 1.24"/></g></svg>